<mxfile host="65bd71144e">
    <diagram id="zanXUPKh3c4mAXAyNPzC" name="Page-1">
        <mxGraphModel dx="883" dy="787" grid="1" gridSize="10" guides="1" tooltips="1" connect="1" arrows="1" fold="1" page="1" pageScale="1" pageWidth="827" pageHeight="1169" math="0" shadow="0">
            <root>
                <mxCell id="0"/>
                <mxCell id="1" parent="0"/>
                <mxCell id="5" style="edgeStyle=none;html=1;entryX=0;entryY=0.5;entryDx=0;entryDy=0;exitX=0;exitY=0.5;exitDx=0;exitDy=0;" parent="1" source="3" target="93" edge="1">
                    <mxGeometry relative="1" as="geometry">
                        <mxPoint x="200" y="120" as="sourcePoint"/>
                        <mxPoint x="80" y="55" as="targetPoint"/>
                        <Array as="points">
                            <mxPoint x="50" y="210"/>
                            <mxPoint x="50" y="90"/>
                            <mxPoint x="50" y="40"/>
                        </Array>
                    </mxGeometry>
                </mxCell>
                <mxCell id="6" value="" style="edgeStyle=none;html=1;" parent="1" target="3" edge="1">
                    <mxGeometry relative="1" as="geometry">
                        <mxPoint x="140.44444444444446" y="70" as="sourcePoint"/>
                    </mxGeometry>
                </mxCell>
                <mxCell id="12" value="" style="edgeStyle=none;html=1;" parent="1" source="3" target="11" edge="1">
                    <mxGeometry relative="1" as="geometry"/>
                </mxCell>
                <mxCell id="3" value="saisie.length &amp;lt; 3" style="rhombus;whiteSpace=wrap;html=1;" parent="1" vertex="1">
                    <mxGeometry x="82.5" y="168.75" width="120" height="80" as="geometry"/>
                </mxCell>
                <mxCell id="9" value="Oui" style="text;html=1;strokeColor=none;fillColor=none;align=center;verticalAlign=middle;whiteSpace=wrap;rounded=0;" parent="1" vertex="1">
                    <mxGeometry x="52.5" y="158.75" width="40" height="30" as="geometry"/>
                </mxCell>
                <mxCell id="10" value="Non" style="text;html=1;strokeColor=none;fillColor=none;align=center;verticalAlign=middle;whiteSpace=wrap;rounded=0;" parent="1" vertex="1">
                    <mxGeometry x="202.5" y="178.75" width="60" height="30" as="geometry"/>
                </mxCell>
                <mxCell id="90" value="" style="edgeStyle=none;html=1;" edge="1" parent="1" source="11" target="25">
                    <mxGeometry relative="1" as="geometry"/>
                </mxCell>
                <mxCell id="11" value="Tri depuis le titre, les ingrédients et la description dans les recettes" style="rounded=1;whiteSpace=wrap;html=1;" parent="1" vertex="1">
                    <mxGeometry x="276.5" y="166.25" width="140" height="85" as="geometry"/>
                </mxCell>
                <mxCell id="22" value="" style="edgeStyle=none;html=1;exitX=0;exitY=0.5;exitDx=0;exitDy=0;entryX=0.5;entryY=0;entryDx=0;entryDy=0;" parent="1" edge="1" source="25">
                    <mxGeometry relative="1" as="geometry">
                        <mxPoint x="276.5" y="435" as="sourcePoint"/>
                        <mxPoint x="125" y="525" as="targetPoint"/>
                        <Array as="points">
                            <mxPoint x="125" y="405"/>
                        </Array>
                    </mxGeometry>
                </mxCell>
                <mxCell id="37" value="" style="edgeStyle=none;html=1;entryX=0.5;entryY=0;entryDx=0;entryDy=0;" edge="1" parent="1" source="15" target="58">
                    <mxGeometry relative="1" as="geometry">
                        <mxPoint x="556.5" y="670" as="targetPoint"/>
                    </mxGeometry>
                </mxCell>
                <mxCell id="15" value="Affichage des recettes" style="rounded=1;whiteSpace=wrap;html=1;" parent="1" vertex="1">
                    <mxGeometry x="481.5" y="570" width="140" height="60" as="geometry"/>
                </mxCell>
                <mxCell id="24" value="Non" style="text;html=1;strokeColor=none;fillColor=none;align=center;verticalAlign=middle;whiteSpace=wrap;rounded=0;" parent="1" vertex="1">
                    <mxGeometry x="190" y="370" width="60" height="30" as="geometry"/>
                </mxCell>
                <mxCell id="91" value="" style="edgeStyle=none;html=1;" edge="1" parent="1" source="25" target="48">
                    <mxGeometry relative="1" as="geometry"/>
                </mxCell>
                <mxCell id="25" value="Une ou plusieurs correspondances ?" style="rhombus;whiteSpace=wrap;html=1;" parent="1" vertex="1">
                    <mxGeometry x="276.5" y="340" width="140" height="130" as="geometry"/>
                </mxCell>
                <mxCell id="84" value="" style="edgeStyle=none;html=1;" edge="1" parent="1">
                    <mxGeometry relative="1" as="geometry">
                        <mxPoint x="530" y="80" as="sourcePoint"/>
                        <mxPoint x="530" y="153.75" as="targetPoint"/>
                    </mxGeometry>
                </mxCell>
                <mxCell id="86" value="" style="edgeStyle=none;html=1;" edge="1" parent="1">
                    <mxGeometry relative="1" as="geometry">
                        <mxPoint x="660" y="208.75" as="sourcePoint"/>
                        <mxPoint x="590" y="208.75" as="targetPoint"/>
                    </mxGeometry>
                </mxCell>
                <mxCell id="40" value="" style="edgeStyle=none;html=1;" edge="1" parent="1">
                    <mxGeometry relative="1" as="geometry">
                        <mxPoint x="346.5" y="500" as="sourcePoint"/>
                        <mxPoint x="346.5" y="500" as="targetPoint"/>
                    </mxGeometry>
                </mxCell>
                <mxCell id="51" value="" style="edgeStyle=none;html=1;" edge="1" parent="1" source="48" target="15">
                    <mxGeometry relative="1" as="geometry"/>
                </mxCell>
                <mxCell id="54" value="" style="edgeStyle=none;html=1;" edge="1" parent="1" source="48" target="53">
                    <mxGeometry relative="1" as="geometry"/>
                </mxCell>
                <mxCell id="48" value="Y'a-t-il un ou&lt;br&gt;plusieurs tags&lt;br&gt;non filtrés" style="rhombus;whiteSpace=wrap;html=1;" vertex="1" parent="1">
                    <mxGeometry x="276.5" y="540" width="140" height="120" as="geometry"/>
                </mxCell>
                <mxCell id="52" value="Non" style="text;html=1;strokeColor=none;fillColor=none;align=center;verticalAlign=middle;whiteSpace=wrap;rounded=0;" vertex="1" parent="1">
                    <mxGeometry x="481.5" y="330" width="60" height="30" as="geometry"/>
                </mxCell>
                <mxCell id="56" value="" style="edgeStyle=none;html=1;entryX=0;entryY=0.5;entryDx=0;entryDy=0;exitX=0;exitY=0.5;exitDx=0;exitDy=0;" edge="1" parent="1" source="53" target="48">
                    <mxGeometry relative="1" as="geometry">
                        <Array as="points">
                            <mxPoint x="216.5" y="740"/>
                            <mxPoint x="216.5" y="600"/>
                        </Array>
                    </mxGeometry>
                </mxCell>
                <mxCell id="53" value="Filtrer par le tag en cours" style="rounded=1;whiteSpace=wrap;html=1;" vertex="1" parent="1">
                    <mxGeometry x="286.5" y="710" width="120" height="60" as="geometry"/>
                </mxCell>
                <mxCell id="57" value="Oui" style="text;html=1;strokeColor=none;fillColor=none;align=center;verticalAlign=middle;whiteSpace=wrap;rounded=0;" vertex="1" parent="1">
                    <mxGeometry x="296.5" y="670" width="60" height="30" as="geometry"/>
                </mxCell>
                <mxCell id="79" value="" style="edgeStyle=none;html=1;" edge="1" parent="1" source="58">
                    <mxGeometry relative="1" as="geometry">
                        <mxPoint x="551.5" y="870" as="targetPoint"/>
                    </mxGeometry>
                </mxCell>
                <mxCell id="58" value="&amp;nbsp;Mise à jour des recherches avancées" style="whiteSpace=wrap;html=1;rounded=1;" vertex="1" parent="1">
                    <mxGeometry x="481.5" y="780" width="140" height="60" as="geometry"/>
                </mxCell>
                <mxCell id="85" value="" style="edgeStyle=none;html=1;" edge="1" parent="1" target="11">
                    <mxGeometry relative="1" as="geometry">
                        <mxPoint x="470" y="208.75" as="sourcePoint"/>
                    </mxGeometry>
                </mxCell>
                <mxCell id="89" value="" style="edgeStyle=none;html=1;entryX=1;entryY=0;entryDx=0;entryDy=0;" edge="1" parent="1" target="48">
                    <mxGeometry relative="1" as="geometry">
                        <mxPoint x="530" y="263.75" as="sourcePoint"/>
                        <mxPoint x="530" y="368.75" as="targetPoint"/>
                        <Array as="points">
                            <mxPoint x="530" y="460"/>
                        </Array>
                    </mxGeometry>
                </mxCell>
                <mxCell id="87" value="Oui" style="text;html=1;strokeColor=none;fillColor=none;align=center;verticalAlign=middle;whiteSpace=wrap;rounded=0;" vertex="1" parent="1">
                    <mxGeometry x="416.5" y="178.75" width="60" height="30" as="geometry"/>
                </mxCell>
                <mxCell id="93" value="Saisie dans la barre principale" style="rounded=0;whiteSpace=wrap;html=1;" vertex="1" parent="1">
                    <mxGeometry x="80" y="10" width="120" height="60" as="geometry"/>
                </mxCell>
                <mxCell id="94" value="Choix d'un mot clé&lt;br&gt;(ajout d'un tag)" style="rounded=0;whiteSpace=wrap;html=1;" vertex="1" parent="1">
                    <mxGeometry x="470" y="20" width="120" height="60" as="geometry"/>
                </mxCell>
                <mxCell id="95" value="L'utilisateur peut choisir une recette" style="rounded=0;whiteSpace=wrap;html=1;" vertex="1" parent="1">
                    <mxGeometry x="491.5" y="870" width="120" height="60" as="geometry"/>
                </mxCell>
                <mxCell id="96" value="Suppression d'un tag" style="rounded=0;whiteSpace=wrap;html=1;" vertex="1" parent="1">
                    <mxGeometry x="660" y="178.75" width="120" height="60" as="geometry"/>
                </mxCell>
                <mxCell id="97" value="Y'a-t-il une&lt;br&gt;saisie dans la&lt;br&gt;barre principale&lt;br&gt;&amp;gt; 3" style="rhombus;whiteSpace=wrap;html=1;" vertex="1" parent="1">
                    <mxGeometry x="470" y="150" width="120" height="120" as="geometry"/>
                </mxCell>
                <mxCell id="98" value="Aucune recette ne contient ‘XXX ’ vous pouvez chercher «&lt;br&gt;tarte aux pommes », « poisson », etc." style="rounded=0;whiteSpace=wrap;html=1;" vertex="1" parent="1">
                    <mxGeometry x="60" y="870" width="220" height="60" as="geometry"/>
                </mxCell>
                <mxCell id="101" value="" style="edgeStyle=none;html=1;entryX=0.3;entryY=-0.067;entryDx=0;entryDy=0;entryPerimeter=0;" edge="1" parent="1" target="98">
                    <mxGeometry relative="1" as="geometry">
                        <mxPoint x="125" y="585" as="sourcePoint"/>
                        <mxPoint x="125" y="640" as="targetPoint"/>
                    </mxGeometry>
                </mxCell>
                <mxCell id="103" value="Pas d'affichage des boutons de filtres ni de recettes" style="rounded=1;whiteSpace=wrap;html=1;" vertex="1" parent="1">
                    <mxGeometry x="65" y="525" width="120" height="60" as="geometry"/>
                </mxCell>
            </root>
        </mxGraphModel>
    </diagram>
</mxfile>